<?xml version="1.0" encoding="utf-8"?>
<!-- Generator: Adobe Illustrator 17.0.0, SVG Export Plug-In . SVG Version: 6.00 Build 0)  -->
<!DOCTYPE svg PUBLIC "-//W3C//DTD SVG 1.1//EN" "http://www.w3.org/Graphics/SVG/1.1/DTD/svg11.dtd">
<svg version="1.1" id="Layer_1" xmlns="http://www.w3.org/2000/svg" xmlns:xlink="http://www.w3.org/1999/xlink" x="0px" y="0px"
	 width="1000px" height="1000px" viewBox="0 0 1000 1000" enable-background="new 0 0 1000 1000" xml:space="preserve">
<g>
	<g>
		<path fill="#EC1E24" d="M500,479.939"/>
	</g>
	<g>
		<g>
			<path fill="#EC1C24" d="M461.261,410.862c-0.189,0.636,27.858-49.557,79.784-55.242c0,0,10.044-14.592,32.596-11.56
				c0,0-13.645-18.572-44.724-3.98C497.836,354.672,468.652,385.942,461.261,410.862z"/>
		</g>
		<g>
			<path fill="#009BC8" d="M522.662,382.522c0,0,57.043,56.293-43.398,76.192c0,0-44.251,5.591-72.109,59.222
				c0,0,46.276-38.829,82.721-47.662C524.936,466.294,587.553,407.317,522.662,382.522z"/>
		</g>
		<g>
			<g>
				<path fill="#231F20" d="M401.371,530.534c-1.129,0-2.108-0.837-2.252-1.987c-0.194-1.548-4.114-38.717,52.424-107.755
					c0.794-0.972,2.228-1.115,3.2-0.319c0.972,0.796,1.114,2.229,0.318,3.2c-55.065,67.242-51.471,103.953-51.428,104.316
					c0.147,1.244-0.74,2.376-1.983,2.527C401.556,530.528,401.463,530.534,401.371,530.534z"/>
			</g>
		</g>
		<g>
			<g>
				
					<path fill="#231F20" stroke="#EE4036" stroke-width="6.7771" stroke-linecap="round" stroke-linejoin="round" stroke-miterlimit="10" d="
					M556.205,396.365"/>
			</g>
		</g>
		<g>
			<g>
				<path fill="#231F20" d="M598.538,361.946c-1.649-1.592-3.627-2.399-5.879-2.399c-7.186,0-14.691,8.562-15.93,10.04l-0.034,0.045
					c-0.023,0.034-0.046,0.057-0.068,0.08c-0.432,0.523-0.614,1.205-0.477,1.876c0.125,0.66,0.534,1.239,1.126,1.558
					c0.489,0.273,0.944,0.569,1.387,0.898c2.854,2.126,4.787,5.401,6.049,8.448c0.102,0.216,0.182,0.443,0.273,0.66
					c0.534,1.353,0.932,2.649,1.239,3.73c0.5,1.865,0.694,3.138,0.705,3.172c0.136,0.91,0.796,1.66,1.694,1.876
					c0.182,0.057,0.375,0.08,0.557,0.08c0.705,0,1.387-0.33,1.819-0.921C592.614,388.928,606.555,369.746,598.538,361.946z
					 M590.192,384.21c-1.296-4.139-3.798-9.824-8.369-13.463c2.717-2.786,7.277-6.652,10.836-6.652c1.057,0,1.922,0.352,2.706,1.114
					C598.641,368.393,594.286,377.66,590.192,384.21z"/>
			</g>
			<g>
				<path fill="#EFDE16" d="M590.192,384.21c-1.296-4.139-3.798-9.824-8.369-13.463c2.717-2.786,7.277-6.652,10.836-6.652
					c1.057,0,1.922,0.352,2.706,1.114C598.641,368.393,594.286,377.66,590.192,384.21z"/>
			</g>
		</g>
		<g>
			<g>
				<path fill="#EFDE16" d="M584.712,382.493c-7.493,4.605-12.542,2.013-14.861,0.08l8.812-8.528
					C581.516,376.17,583.449,379.445,584.712,382.493z"/>
			</g>
			<g>
				<path fill="#231F20" d="M588.498,385.449c-0.773,0.534-1.535,1.012-2.274,1.433c-3.513,1.99-6.663,2.718-9.392,2.718
					c-7.573,0-11.951-5.628-12.019-5.708c-0.694-0.91-0.591-2.206,0.239-3.002l11.643-11.257l0.034-0.045l0.068-0.057
					c0.898-0.875,2.342-0.853,3.218,0.046c0.876,0.91,0.841,2.342-0.057,3.218l-1.296,1.251l-8.812,8.528
					c2.32,1.933,7.368,4.526,14.861-0.08c0.398-0.239,0.785-0.5,1.194-0.785c1.035-0.716,2.445-0.466,3.172,0.569
					C589.794,383.311,589.533,384.733,588.498,385.449z"/>
			</g>
		</g>
		<g>
			<g>
				<path fill="#231F20" d="M459.553,413.137c-0.363,0-0.731-0.087-1.074-0.271c-1.106-0.594-1.521-1.973-0.928-3.079
					c1.523-2.837,37.833-69.565,84.717-76.791c17.813-2.746,34.771,3.559,50.408,18.738c0.799,0.775,1.06,2.039,0.459,2.976
					c-0.742,1.156-2.289,1.383-3.328,0.562c-0.225-0.178-22.801-17.691-41.997-4.776c-2.753,1.852-4.274,3.832-4.65,6.053
					c-0.818,4.834,3.757,10.936,8.18,16.838c6.288,8.388,13.408,17.887,5.696,25.929c-0.824,0.859-2.198,1.104-3.146,0.383
					c-1.117-0.849-1.202-2.449-0.251-3.414c4.866-4.931,1.003-10.909-5.938-20.169c-5-6.67-10.17-13.566-9.027-20.325
					c0.587-3.468,2.807-6.519,6.597-9.069c8.759-5.893,18.022-6.326,26.016-4.703c0.07,0.014,0.1-0.085,0.036-0.117
					c-9.156-4.426-18.64-5.909-28.362-4.411c-44.664,6.884-81.039,73.773-81.401,74.447
					C461.149,412.702,460.363,413.137,459.553,413.137z"/>
			</g>
		</g>
		<g>
			<path fill="#009BC8" d="M462.776,573.376v-93.437l10.045-4.667v86.725C472.821,561.997,470.356,572.626,462.776,573.376z"/>
		</g>
		<g>
			<g>
				<path fill="#231F20" d="M431.761,609.99c-0.493,0-0.978-0.16-1.379-0.466c-0.564-0.43-0.895-1.098-0.895-1.808V499.693
					c0-1.256,1.018-2.274,2.274-2.274c1.256,0,2.274,1.018,2.274,2.274v104.891c4.968-1.828,12.519-5.565,12.443-10.048v-50.637
					c0-0.682,0.306-1.328,0.834-1.76c0.529-0.432,1.219-0.603,1.89-0.47c0.554,0.112,13.574,2.842,13.574,11.989v19.718
					c2.945-2.166,6.997-6.364,7.771-13.395v-82.435c0-1.256,1.018-2.274,2.274-2.274c1.256,0,2.274,1.018,2.274,2.274v82.556
					c0,0.079-0.004,0.158-0.012,0.237c-1.451,13.885-13.212,18.904-13.711,19.11c-0.702,0.292-1.501,0.211-2.133-0.21
					c-0.632-0.422-1.01-1.132-1.01-1.891v-23.69c0-3.543-4.263-5.676-7.201-6.727v47.567c0.167,9.966-16.737,14.884-18.665,15.411
					C432.165,609.964,431.962,609.99,431.761,609.99z"/>
			</g>
		</g>
		<g>
			<g>
				<path fill="#231F20" d="M401.374,530.538c-0.341,0-0.685-0.077-1.007-0.235c-0.962-0.476-1.46-1.559-1.196-2.598
					c0.128-0.504,13.492-50.693,72.7-71.702c33.371-11.841,45.976-28.625,43.564-39.208c-1.66-7.285-10.634-11.143-22.851-9.83
					c-1.227,0.129-2.37-0.768-2.504-2.018c-0.134-1.249,0.768-2.37,2.018-2.505c14.676-1.576,25.566,3.661,27.773,13.342
					c2.939,12.9-10.292,31.664-46.477,44.504c-39.023,13.846-57.313,40.762-64.985,56.428c24.955-26.15,55.015-38.077,81.876-48.733
					c28.361-11.251,50.763-20.138,56.714-42.082c0.072-0.236,4.71-15.539-2.055-27.316c-3.659-6.367-10.051-10.641-19.001-12.702
					c-31.852-7.342-54.426,25.263-54.65,25.593c-0.704,1.039-2.12,1.31-3.159,0.603c-1.039-0.706-1.309-2.12-0.603-3.159
					c0.242-0.356,24.587-35.499,59.434-27.469c10.247,2.36,17.628,7.372,21.94,14.897c7.748,13.523,2.681,30.128,2.461,30.828
					c-6.523,24.057-31.028,33.778-59.403,45.034c-29.579,11.734-63.105,25.034-88.803,57.465
					C402.714,530.236,402.051,530.538,401.374,530.538z"/>
			</g>
		</g>
	</g>
	<g>
		<path fill="#231F20" d="M271.627,667.141h-4.402v-19.202c0-1.734-0.223-3.183-0.669-4.351c-0.446-1.167-1.086-2.102-1.918-2.806
			c-0.833-0.703-1.853-1.201-3.063-1.493c-1.21-0.292-2.578-0.437-4.105-0.437c-0.996,0-2.068,0.051-3.218,0.154
			c-1.15,0.103-2.287,0.236-3.411,0.399c-1.124,0.163-2.188,0.343-3.192,0.541c-1.004,0.197-1.866,0.382-2.587,0.553l0.489-4.247
			c0.824-0.155,1.729-0.3,2.716-0.438c0.987-0.137,2.025-0.261,3.114-0.373c1.09-0.111,2.218-0.202,3.385-0.271
			c1.167-0.068,2.351-0.103,3.552-0.103c1.888,0,3.638,0.232,5.251,0.695c1.613,0.463,3.02,1.205,4.221,2.226
			c1.201,1.021,2.141,2.329,2.819,3.925c0.678,1.596,1.017,3.527,1.017,5.792V667.141z M249.748,667.141h-4.35v-18.353l4.35-2.086
			V667.141z"/>
		<path fill="#231F20" d="M314.563,635.505c-0.103,0.875-0.24,2.033-0.412,3.475c-0.138,1.235-0.318,2.849-0.541,4.839
			c-0.223,1.99-0.506,4.453-0.849,7.388c-0.326,2.882-0.828,5.332-1.506,7.349c-0.678,2.017-1.558,3.66-2.639,4.929
			c-1.081,1.27-2.373,2.197-3.874,2.78c-1.502,0.583-3.239,0.875-5.212,0.875h-15.882l-4.762-31.635h4.607l2.754,19.408
			c1.012-0.309,1.926-0.617,2.742-0.927c0.815-0.309,1.54-0.673,2.175-1.094c0.635-0.42,1.193-0.922,1.673-1.505
			c0.48-0.583,0.901-1.291,1.261-2.124c0.36-0.832,0.665-1.819,0.914-2.96c0.249-1.141,0.451-2.484,0.605-4.029
			c0.086-0.789,0.171-1.583,0.258-2.381c0.086-0.798,0.171-1.522,0.257-2.175c0.086-0.772,0.171-1.509,0.258-2.213h4.53
			c-0.069,0.617-0.146,1.304-0.232,2.059c-0.086,0.652-0.172,1.399-0.258,2.24s-0.18,1.75-0.283,2.728
			c-0.241,2.368-0.627,4.415-1.158,6.139c-0.532,1.724-1.304,3.217-2.316,4.479c-1.013,1.261-2.313,2.329-3.9,3.205
			c-1.588,0.875-3.557,1.647-5.908,2.316l0.618,4.299h12.098c1.03,0,2.004-0.167,2.922-0.501c0.918-0.335,1.754-0.931,2.51-1.789
			c0.755-0.858,1.407-2.029,1.956-3.514c0.549-1.484,0.961-3.367,1.236-5.65c0.377-2.848,0.686-5.277,0.926-7.285
			c0.24-2.007,0.429-3.664,0.566-4.968c0.171-1.527,0.3-2.78,0.386-3.758H314.563z"/>
		<path fill="#231F20" d="M349.751,655.789c0,1.905-0.21,3.591-0.63,5.058c-0.421,1.467-1.042,2.703-1.866,3.707
			c-0.824,1.004-1.845,1.768-3.063,2.291c-1.218,0.524-2.617,0.785-4.196,0.785c-0.91,0-1.785-0.081-2.626-0.244
			c-0.841-0.163-1.588-0.39-2.239-0.682l1.133-3.423c0.566,0.138,1.124,0.244,1.673,0.322c0.549,0.077,1.167,0.115,1.853,0.115
			c0.961,0,1.789-0.18,2.484-0.54c0.695-0.36,1.27-0.866,1.725-1.519c0.454-0.651,0.794-1.428,1.017-2.329
			c0.223-0.901,0.335-1.901,0.335-2.999v-6.384c0-0.824-0.06-1.664-0.18-2.523c-0.12-0.858-0.321-1.694-0.605-2.51
			c-0.283-0.815-0.665-1.583-1.145-2.304c-0.481-0.721-1.073-1.347-1.776-1.879c-0.704-0.532-1.54-0.957-2.51-1.275
			c-0.97-0.317-2.089-0.476-3.359-0.476c-0.755,0-1.54,0.09-2.355,0.27c-0.815,0.18-1.596,0.446-2.342,0.798
			c-0.746,0.352-1.438,0.789-2.072,1.313c-0.635,0.524-1.15,1.137-1.544,1.84c-0.155,0.292-0.296,0.605-0.425,0.94
			c-0.129,0.334-0.193,0.673-0.193,1.017v21.983h-4.35v-26.076c0-0.789-0.043-1.548-0.128-2.278
			c-0.086-0.729-0.326-1.48-0.721-2.252l3.81-1.648c0.377,0.549,0.678,1.184,0.901,1.905c0.223,0.72,0.352,1.621,0.386,2.702
			c1.27-1.372,2.703-2.454,4.299-3.243c1.596-0.789,3.398-1.184,5.406-1.184c2.162,0,4.071,0.352,5.727,1.055
			c1.656,0.704,3.046,1.691,4.17,2.96c1.124,1.27,1.973,2.78,2.548,4.53c0.575,1.751,0.862,3.673,0.862,5.766V655.789z"/>
		<path fill="#231F20" d="M393.227,643.537c0,0.48-0.022,0.987-0.064,1.519c-0.043,0.532-0.082,0.961-0.116,1.287l-0.721,7.388
			c-0.103,1.013-0.266,2.024-0.489,3.037c-0.223,1.013-0.528,1.982-0.914,2.909c-0.386,0.927-0.858,1.802-1.416,2.625
			c-0.558,0.824-1.223,1.553-1.995,2.188c-0.807,0.669-1.751,1.18-2.832,1.532c-1.081,0.351-2.192,0.609-3.333,0.772
			c-1.141,0.163-2.252,0.258-3.333,0.283c-1.081,0.026-2.025,0.047-2.832,0.064l1.287-3.655c0.446,0,0.978-0.013,1.596-0.039
			c0.618-0.026,1.265-0.086,1.943-0.18c0.678-0.094,1.356-0.231,2.034-0.412c0.678-0.18,1.283-0.425,1.815-0.734
			c0.634-0.36,1.193-0.823,1.673-1.39c0.48-0.566,0.888-1.205,1.223-1.918c0.335-0.712,0.605-1.475,0.811-2.291
			c0.206-0.815,0.352-1.643,0.437-2.484l0.695-7.259c0.017-0.171,0.047-0.497,0.09-0.978c0.043-0.48,0.065-0.935,0.065-1.365
			c0-0.824-0.146-1.553-0.438-2.188c-0.292-0.635-0.708-1.167-1.249-1.596c-0.54-0.429-1.197-0.755-1.969-0.978
			c-0.772-0.223-1.63-0.334-2.574-0.334H369.7v-15.857h4.35v12.021h9.421c1.476,0,2.814,0.202,4.016,0.605
			c1.201,0.403,2.227,0.965,3.076,1.686c0.849,0.721,1.506,1.57,1.969,2.548C392.995,641.323,393.227,642.387,393.227,643.537z"/>
		<path fill="#231F20" d="M434.953,635.505c-0.103,0.875-0.24,2.033-0.412,3.475c-0.138,1.235-0.318,2.849-0.541,4.839
			c-0.223,1.99-0.506,4.453-0.849,7.388c-0.326,2.882-0.828,5.332-1.506,7.349c-0.678,2.017-1.558,3.66-2.639,4.929
			c-1.081,1.27-2.373,2.197-3.874,2.78c-1.501,0.583-3.239,0.875-5.212,0.875h-15.882l-4.762-31.635h4.607l2.754,19.408
			c1.012-0.309,1.926-0.617,2.742-0.927c0.815-0.309,1.54-0.673,2.175-1.094c0.635-0.42,1.192-0.922,1.673-1.505
			c0.48-0.583,0.901-1.291,1.261-2.124c0.36-0.832,0.665-1.819,0.914-2.96c0.249-1.141,0.451-2.484,0.605-4.029
			c0.086-0.789,0.171-1.583,0.258-2.381c0.086-0.798,0.171-1.522,0.257-2.175c0.086-0.772,0.171-1.509,0.258-2.213h4.53
			c-0.069,0.617-0.146,1.304-0.232,2.059c-0.086,0.652-0.172,1.399-0.258,2.24c-0.086,0.841-0.18,1.75-0.283,2.728
			c-0.241,2.368-0.627,4.415-1.158,6.139s-1.304,3.217-2.316,4.479c-1.013,1.261-2.313,2.329-3.9,3.205
			c-1.588,0.875-3.557,1.647-5.908,2.316l0.618,4.299h12.098c1.03,0,2.004-0.167,2.922-0.501c0.918-0.335,1.754-0.931,2.509-1.789
			c0.755-0.858,1.407-2.029,1.956-3.514c0.549-1.484,0.961-3.367,1.236-5.65c0.377-2.848,0.686-5.277,0.926-7.285
			c0.24-2.007,0.429-3.664,0.566-4.968c0.171-1.527,0.3-2.78,0.386-3.758H434.953z"/>
		<path fill="#231F20" d="M486.1,667.141h-4.402v-19.202c0-1.665-0.245-3.072-0.734-4.221c-0.489-1.15-1.219-2.086-2.188-2.806
			c-0.97-0.721-2.184-1.245-3.642-1.57s-3.158-0.489-5.097-0.489c-0.875,0-1.789,0.034-2.741,0.103
			c-0.953,0.069-1.918,0.154-2.896,0.257v16.809c0,1.047-0.017,2.059-0.051,3.038c-0.035,0.978-0.129,1.896-0.283,2.754
			c-0.155,0.859-0.386,1.648-0.695,2.368c-0.309,0.721-0.746,1.335-1.313,1.841c-0.566,0.506-1.279,0.901-2.137,1.184
			c-0.858,0.283-1.905,0.425-3.14,0.425c-0.498,0-1.013-0.017-1.544-0.051c-0.532-0.035-1.081-0.095-1.647-0.18l0.489-3.732
			c0.343,0.069,0.652,0.107,0.927,0.116c0.274,0.009,0.54,0.012,0.798,0.012c0.789,0,1.45-0.132,1.982-0.399
			c0.532-0.265,0.965-0.69,1.3-1.274c0.335-0.583,0.575-1.325,0.721-2.226c0.146-0.901,0.219-1.977,0.219-3.23v-16.886
			c-0.755,0.121-1.459,0.245-2.111,0.374c-0.652,0.128-1.235,0.244-1.75,0.347l0.489-4.247c0.943-0.155,1.969-0.3,3.076-0.438
			c1.107-0.137,2.274-0.261,3.501-0.373c1.227-0.111,2.501-0.202,3.823-0.271c1.321-0.068,2.66-0.103,4.015-0.103
			c2.128,0,4.106,0.232,5.933,0.695c1.828,0.463,3.415,1.205,4.762,2.226c1.347,1.021,2.407,2.329,3.179,3.925
			c0.772,1.596,1.158,3.527,1.158,5.792V667.141z"/>
		<path fill="#231F20" d="M499.769,667.141h-4.351v-31.635h4.351V667.141z"/>
		<path fill="#231F20" d="M513.9,652.957h-4.351v-17.452h4.351V652.957z"/>
		<path fill="#231F20" d="M549.937,667.141h-4.402v-19.563c0-1.699-0.224-3.106-0.669-4.221c-0.446-1.115-1.081-2.004-1.905-2.664
			c-0.823-0.661-1.827-1.12-3.012-1.378c-1.184-0.257-2.523-0.386-4.016-0.386c-1.424,0-2.84,0.086-4.247,0.258
			c-1.407,0.172-2.625,0.36-3.655,0.566v27.388h-4.35v-30.811c0.824-0.172,1.78-0.335,2.87-0.49c1.09-0.154,2.209-0.287,3.36-0.398
			c1.15-0.111,2.287-0.202,3.411-0.271c1.123-0.068,2.141-0.103,3.05-0.103c2.179,0,4.11,0.232,5.792,0.695
			c1.682,0.463,3.097,1.205,4.247,2.226c1.15,1.021,2.025,2.329,2.626,3.925c0.601,1.596,0.901,3.527,0.901,5.792V667.141z"/>
		<path fill="#231F20" d="M585.64,667.141h-4.402v-19.202c0-1.734-0.224-3.183-0.67-4.351c-0.446-1.167-1.085-2.102-1.918-2.806
			c-0.832-0.703-1.853-1.201-3.063-1.493c-1.21-0.292-2.579-0.437-4.106-0.437c-0.996,0-2.068,0.051-3.217,0.154
			c-1.15,0.103-2.287,0.236-3.411,0.399c-1.124,0.163-2.188,0.343-3.192,0.541c-1.004,0.197-1.867,0.382-2.587,0.553l0.489-4.247
			c0.824-0.155,1.728-0.3,2.715-0.438c0.987-0.137,2.025-0.261,3.115-0.373c1.089-0.111,2.218-0.202,3.384-0.271
			c1.167-0.068,2.351-0.103,3.552-0.103c1.888,0,3.638,0.232,5.252,0.695c1.612,0.463,3.02,1.205,4.221,2.226
			c1.201,1.021,2.141,2.329,2.818,3.925s1.017,3.527,1.017,5.792V667.141z M563.76,667.141h-4.351v-18.353l4.351-2.086V667.141z"/>
		<path fill="#231F20" d="M638.357,667.141h-4.402v-19.202c0-1.665-0.244-3.072-0.733-4.221c-0.49-1.15-1.219-2.086-2.188-2.806
			c-0.969-0.721-2.184-1.245-3.642-1.57c-1.459-0.326-3.158-0.489-5.097-0.489c-0.875,0-1.789,0.034-2.742,0.103
			c-0.952,0.069-1.918,0.154-2.896,0.257v16.809c0,1.047-0.017,2.059-0.052,3.038c-0.034,0.978-0.128,1.896-0.283,2.754
			c-0.154,0.859-0.386,1.648-0.695,2.368c-0.309,0.721-0.746,1.335-1.313,1.841s-1.279,0.901-2.137,1.184
			c-0.859,0.283-1.905,0.425-3.141,0.425c-0.497,0-1.013-0.017-1.544-0.051c-0.532-0.035-1.081-0.095-1.648-0.18l0.49-3.732
			c0.343,0.069,0.651,0.107,0.926,0.116c0.275,0.009,0.541,0.012,0.798,0.012c0.789,0,1.45-0.132,1.982-0.399
			c0.532-0.265,0.965-0.69,1.3-1.274c0.334-0.583,0.575-1.325,0.72-2.226c0.145-0.901,0.219-1.977,0.219-3.23v-16.886
			c-0.755,0.121-1.459,0.245-2.11,0.374c-0.653,0.128-1.236,0.244-1.751,0.347l0.489-4.247c0.944-0.155,1.969-0.3,3.076-0.438
			c1.107-0.137,2.274-0.261,3.501-0.373c1.227-0.111,2.501-0.202,3.822-0.271c1.321-0.068,2.66-0.103,4.016-0.103
			c2.128,0,4.106,0.232,5.933,0.695c1.828,0.463,3.415,1.205,4.762,2.226c1.347,1.021,2.407,2.329,3.179,3.925
			c0.772,1.596,1.158,3.527,1.158,5.792V667.141z"/>
		<path fill="#231F20" d="M668.679,651.336c0,1.441-0.099,2.69-0.296,3.746c-0.197,1.055-0.467,1.982-0.811,2.779
			c-0.343,0.798-0.755,1.502-1.235,2.111c-0.481,0.61-0.996,1.18-1.545,1.712l-1.338,1.287h7.233l-0.566,4.17h-25.174l0.618-4.17
			h10.863c1.167,0,2.171-0.218,3.012-0.656s1.553-1.008,2.137-1.712c0.583-0.703,1.051-1.488,1.403-2.355
			c0.352-0.866,0.627-1.728,0.824-2.587c0.197-0.858,0.326-1.669,0.386-2.432c0.06-0.764,0.09-1.377,0.09-1.84v-3.449
			c0-3.089-0.824-5.376-2.471-6.86c-1.647-1.484-3.981-2.226-7.001-2.226c-1.802,0-3.557,0.142-5.264,0.425
			c-1.708,0.283-3.274,0.579-4.698,0.888l0.566-4.119c0.721-0.155,1.488-0.296,2.304-0.425c0.815-0.128,1.635-0.231,2.458-0.309
			c0.824-0.077,1.625-0.137,2.407-0.18c0.781-0.043,1.506-0.064,2.175-0.064c2.059,0,3.942,0.254,5.65,0.76
			c1.707,0.506,3.175,1.283,4.402,2.329c1.227,1.047,2.179,2.368,2.858,3.964c0.678,1.597,1.017,3.484,1.017,5.663V651.336z"/>
		<path fill="#231F20" d="M682.091,652.957h-4.351v-17.452h4.351V652.957z"/>
		<path fill="#231F20" d="M719.698,651.747c0,2.231-0.339,4.312-1.017,6.243c-0.678,1.93-1.66,3.613-2.947,5.045
			c-1.287,1.433-2.861,2.557-4.723,3.372c-1.862,0.815-3.977,1.222-6.345,1.222c-2.351,0-4.393-0.391-6.126-1.171
			c-1.734-0.781-3.171-1.874-4.312-3.282c-1.142-1.407-1.991-3.085-2.548-5.033c-0.558-1.947-0.837-4.08-0.837-6.397v-15.47
			c1.03-0.155,2.123-0.305,3.282-0.45c1.158-0.146,2.351-0.275,3.578-0.386c1.227-0.111,2.467-0.202,3.719-0.271
			c1.253-0.068,2.471-0.103,3.655-0.103c2.403,0,4.518,0.416,6.346,1.248c1.827,0.832,3.354,1.987,4.582,3.462
			c1.227,1.477,2.149,3.235,2.767,5.277C719.389,647.097,719.698,649.328,719.698,651.747z M715.296,651.747
			c0-1.784-0.202-3.453-0.605-5.007c-0.404-1.553-1.03-2.899-1.879-4.041c-0.849-1.141-1.935-2.042-3.257-2.703
			c-1.321-0.66-2.9-0.991-4.736-0.991c-1.699,0-3.39,0.069-5.071,0.206c-1.682,0.138-3.201,0.301-4.556,0.49v11.712
			c0,1.441,0.146,2.892,0.437,4.35c0.292,1.459,0.802,2.78,1.532,3.964c0.729,1.184,1.712,2.145,2.947,2.883
			c1.236,0.738,2.789,1.106,4.659,1.106c1.905,0,3.527-0.364,4.865-1.094c1.339-0.729,2.424-1.669,3.257-2.818
			c0.832-1.15,1.441-2.433,1.827-3.848C715.103,654.541,715.296,653.138,715.296,651.747z"/>
		<path fill="#231F20" d="M754.937,655.789c0,1.905-0.21,3.591-0.631,5.058c-0.42,1.467-1.042,2.703-1.866,3.707
			c-0.824,1.004-1.845,1.768-3.063,2.291c-1.218,0.524-2.617,0.785-4.196,0.785c-0.91,0-1.785-0.081-2.626-0.244
			s-1.587-0.39-2.24-0.682l1.133-3.423c0.567,0.138,1.124,0.244,1.673,0.322c0.549,0.077,1.167,0.115,1.853,0.115
			c0.961,0,1.789-0.18,2.484-0.54c0.695-0.36,1.27-0.866,1.725-1.519c0.454-0.651,0.793-1.428,1.017-2.329
			c0.223-0.901,0.335-1.901,0.335-2.999v-6.384c0-0.824-0.06-1.664-0.18-2.523c-0.121-0.858-0.322-1.694-0.605-2.51
			c-0.283-0.815-0.665-1.583-1.146-2.304c-0.48-0.721-1.073-1.347-1.776-1.879c-0.704-0.532-1.54-0.957-2.51-1.275
			c-0.97-0.317-2.089-0.476-3.36-0.476c-0.755,0-1.54,0.09-2.355,0.27c-0.815,0.18-1.597,0.446-2.342,0.798
			c-0.747,0.352-1.438,0.789-2.072,1.313c-0.635,0.524-1.15,1.137-1.545,1.84c-0.154,0.292-0.296,0.605-0.425,0.94
			c-0.128,0.334-0.193,0.673-0.193,1.017v21.983h-4.351v-26.076c0-0.789-0.043-1.548-0.128-2.278
			c-0.086-0.729-0.326-1.48-0.721-2.252l3.81-1.648c0.377,0.549,0.678,1.184,0.901,1.905c0.222,0.72,0.351,1.621,0.386,2.702
			c1.269-1.372,2.703-2.454,4.299-3.243c1.596-0.789,3.398-1.184,5.405-1.184c2.163,0,4.071,0.352,5.727,1.055
			c1.656,0.704,3.046,1.691,4.17,2.96c1.123,1.27,1.973,2.78,2.548,4.53c0.575,1.751,0.862,3.673,0.862,5.766V655.789z"/>
	</g>
</g>
</svg>
